<svg width="39" height="35" fill="none" xmlns="http://www.w3.org/2000/svg"><path d="M3.104 6.235c1.723-2.35 4.268-3.8 7.166-4.113 2.192-.235 4.229.235 6.147 1.41.979.588 1.84 1.332 2.663 2.233.587-1.057 1.292-1.998 2.114-2.781C22.799 1.417 24.718.516 26.872.281c2.897-.313 5.716.549 7.909 2.468 2.153 1.88 3.524 4.622 3.876 7.717.353 3.173-.509 6.228-2.701 9.597-1.958 3.016-4.934 6.15-8.38 9.832-1.174 1.253-2.506 2.663-3.876 4.152a2.13 2.13 0 01-1.41.705c-.548.078-1.057-.079-1.527-.392a274.088 274.088 0 00-4.698-3.212c-4.15-2.82-7.753-5.249-10.337-7.756C2.83 20.611 1.342 17.791.99 14.618c-.313-3.095.43-6.072 2.114-8.383z" fill="#fff"/></svg>