<svg width="35" height="31" fill="none" xmlns="http://www.w3.org/2000/svg"><path d="M28.622 19.171c-1.88 0-3.524.901-4.62 2.311l-11.316-4.426c0-.157.04-.274.04-.43 0-.275-.04-.55-.08-.823l11.59-5.367a5.972 5.972 0 004.386 2.037c3.21 0 5.873-2.624 5.873-5.876 0-3.25-2.623-5.914-5.873-5.914-3.21 0-5.873 2.624-5.873 5.875 0 .274.039.549.078.823l-11.59 5.366a5.972 5.972 0 00-4.385-2.037c-3.21 0-5.873 2.625-5.873 5.876 0 3.251 2.623 5.915 5.873 5.915 1.88 0 3.524-.901 4.62-2.311l11.316 4.426c0 .157-.04.274-.04.431 0 3.251 2.624 5.915 5.874 5.915 3.21 0 5.873-2.625 5.873-5.876-.039-3.251-2.662-5.875-5.873-5.915z" fill="#000"/></svg>