<svg width="18" height="16" fill="none" xmlns="http://www.w3.org/2000/svg"><path d="M15.996 4.492a7.668 7.668 0 001.792-1.862 6.783 6.783 0 01-2.068.552 3.536 3.536 0 001.586-2 7.642 7.642 0 01-2.275.897A3.62 3.62 0 0012.377.94a3.619 3.619 0 00-3.619 3.62c0 .275.035.55.103.827a10.5 10.5 0 01-7.479-3.792A3.52 3.52 0 00.9 3.423c0 1.24.62 2.344 1.62 2.999-.586-.035-1.172-.173-1.655-.448v.034a3.624 3.624 0 002.895 3.55 4.04 4.04 0 01-.93.138c-.242 0-.448-.034-.69-.069a3.602 3.602 0 003.378 2.516 7.277 7.277 0 01-4.48 1.551c-.31 0-.586-.034-.862-.069 1.585 1.034 3.48 1.62 5.549 1.62 6.652 0 10.271-5.48 10.271-10.271v-.482z" fill="#000"/></svg>