<svg width="594" height="515" fill="none" xmlns="http://www.w3.org/2000/svg"><g clip-path="url(#clip0_332_1228)"><path d="M311.256 432.535l17.602-5.186L323.722 445l5.136 17.601-17.602-5.136-17.651 5.136L298.791 445l-5.186-17.651 17.651 5.186z" fill="#000" stroke="#fff" stroke-miterlimit="10"/></g><g clip-path="url(#clip1_332_1228)"><path d="M125.205 345.509l31.476 17.15-31.476 17.288-17.219 31.407-17.219-31.407-31.475-17.288 31.475-17.15 17.219-31.545 17.219 31.545z" fill="#000" stroke="#fff" stroke-miterlimit="10"/></g><path d="M564.838 389.333c-1.9 3.444-5.438 5.935-10.533 7.48-5.098 1.546-11.71 2.13-19.671 1.787-15.921-.687-37.123-5.076-62.137-12.732-50.02-15.31-115.182-43.652-183.622-81.403-68.439-37.75-127.172-77.748-166.805-111.89-19.819-17.074-34.841-32.666-43.915-45.765-4.537-6.551-7.57-12.455-8.983-17.592-1.41-5.134-1.191-9.456.709-12.899 1.899-3.444 5.437-5.935 10.533-7.48 5.097-1.546 11.71-2.13 19.671-1.787 15.92.687 37.122 5.076 62.136 12.732 50.021 15.31 115.183 43.652 183.622 81.403 68.439 37.75 127.173 77.747 166.805 111.89 19.82 17.073 34.842 32.665 43.915 45.765 4.538 6.551 7.571 12.455 8.983 17.592 1.411 5.134 1.192 9.455-.708 12.899z" stroke="#000"/><path d="M544.608 426.007c-1.9 3.444-5.438 5.935-10.534 7.48-5.097 1.546-11.71 2.13-19.671 1.786-15.92-.686-37.122-5.075-62.136-12.731-50.021-15.31-115.183-43.652-183.622-81.403-68.439-37.751-127.173-77.748-166.805-111.89-19.82-17.074-34.842-32.666-43.916-45.766-4.537-6.55-7.57-12.454-8.982-17.591-1.411-5.134-1.192-9.456.708-12.9 1.9-3.443 5.438-5.935 10.533-7.48 5.098-1.545 11.71-2.129 19.671-1.786 15.92.687 37.123 5.076 62.137 12.732 50.02 15.309 115.182 43.652 183.622 81.402 68.439 37.751 127.172 77.748 166.805 111.89 19.819 17.074 34.841 32.666 43.915 45.766 4.537 6.551 7.571 12.455 8.983 17.591 1.411 5.134 1.191 9.456-.708 12.9z" stroke="#000"/><path d="M524.379 462.681c-1.9 3.444-5.438 5.935-10.533 7.48-5.098 1.546-11.71 2.13-19.671 1.787-15.921-.687-37.123-5.076-62.137-12.732-50.02-15.31-115.182-43.652-183.622-81.403-68.439-37.75-127.172-77.747-166.805-111.89-19.82-17.073-34.841-32.665-43.915-45.765-4.537-6.551-7.57-12.455-8.983-17.592-1.41-5.134-1.191-9.455.709-12.899 1.9-3.444 5.437-5.935 10.533-7.48 5.098-1.546 11.71-2.13 19.67-1.787 15.921.687 37.123 5.076 62.137 12.732 50.021 15.31 115.183 43.652 183.622 81.403 68.439 37.75 127.173 77.748 166.805 111.89 19.82 17.074 34.842 32.666 43.916 45.765 4.537 6.551 7.57 12.455 8.982 17.592 1.411 5.134 1.192 9.455-.708 12.899z" stroke="#000"/><circle cx="131.758" cy="104.5" r="15.5" fill="#B9FF66"/><circle cx="421.258" cy="435" r="10" fill="#B9FF66"/><circle cx="81.758" cy="64.5" r="23.5" fill="#000"/><path d="M306.23 383.59c-6.304 2.154-13.509-2.115-16.015-9.519L251.217 259.81l22.788-7.795 39.038 114.418c2.506 7.325-.548 15.003-6.813 17.157z" fill="#000"/><path d="M302.823 385c-1.84 0-3.72-.431-5.521-1.332-3.641-1.802-6.539-5.17-7.948-9.323l-38.999-114.261a.861.861 0 01.548-1.097l22.788-7.795c.235-.079.47-.079.666.039a.923.923 0 01.431.509l39.038 114.419c2.623 7.755-.666 15.942-7.362 18.253a11.248 11.248 0 01-3.641.588zm-50.51-124.642l38.724 113.439c1.253 3.721 3.837 6.777 7.048 8.343 2.584 1.254 5.364 1.489 7.87.627 5.795-1.998 8.615-9.205 6.265-16.06l-38.763-113.596-21.144 7.247z" fill="#000"/><path d="M269.971 153.382l-73.729 52.606-28.701 29.81-11.276 19.938-.04.156c-2.231 3.447-.939 11.399 3.25 19.507 4.112 7.991 9.907 13.554 13.979 13.867l-.118.078 21.653 2.35 40.526-6.463 86.024-30.788 106.933 18.332.744.039c-26.861-5.014-63.118-40.934-89.47-91.738-26.312-50.766-34.691-100.944-23.141-125.7h-.039l-46.007 96.752-.588 1.254z" fill="#B9FF66"/><path d="M446.987 270.603c26.427-13.73 21.317-75.974-11.414-139.026-32.731-63.052-80.689-103.036-107.116-89.306-26.428 13.73-21.318 75.974 11.414 139.026 32.731 63.052 80.689 103.036 107.116 89.306z" fill="#fff"/><path d="M435.364 274.185c-11.512 0-25.373-6.424-40.291-18.919-20.322-17-40.252-43.206-56.109-73.838-24.003-46.378-33.909-93.932-25.216-121.155 2.897-9.088 7.752-15.434 14.37-18.842 13.156-6.737 31.676-1.018 52.194 16.139 20.321 17 40.251 43.205 56.109 73.837 24.041 46.379 33.948 93.932 25.216 121.156-2.898 9.088-7.753 15.433-14.37 18.841-3.563 1.88-7.557 2.781-11.903 2.781zM340.099 40.413c-4.033 0-7.792.823-11.159 2.585-6.226 3.173-10.768 9.205-13.509 17.862-8.575 26.832 1.292 73.877 25.099 119.863 32.42 62.556 79.955 102.589 105.993 89.232 6.226-3.173 10.768-9.205 13.509-17.862 8.575-26.832-1.293-73.877-25.099-119.863-28.231-54.448-67.856-91.817-94.834-91.817z" fill="#000"/><path d="M435.364 274.185c-11.512 0-25.373-6.424-40.291-18.919-20.322-17.001-40.252-43.206-56.109-73.838-24.003-46.378-33.909-93.932-25.216-121.155 2.897-9.088 7.752-15.434 14.37-18.842 8.81-4.544 20.321-3.408 33.282 3.251 12.412 6.385 25.842 17.706 38.92 32.708a.867.867 0 01-.078 1.215.865.865 0 01-1.214-.079C372.48 48.051 345.62 34.42 328.94 42.998c-6.226 3.173-10.768 9.205-13.509 17.862-8.575 26.832 1.292 73.877 25.099 119.863 28.192 54.409 67.856 91.817 94.795 91.817 4.033 0 7.792-.823 11.159-2.585 6.226-3.173 10.768-9.205 13.508-17.862 8.575-26.832-1.292-73.877-25.098-119.863-7.087-13.71-15.075-26.598-23.65-38.31-.274-.391-.196-.94.196-1.214.391-.274.94-.196 1.214.196 8.653 11.79 16.641 24.756 23.806 38.544 24.002 46.339 33.909 93.893 25.177 121.117-2.898 9.087-7.753 15.433-14.37 18.841-3.563 1.88-7.557 2.781-11.903 2.781z" fill="#000"/><path d="M387.024 190.339c6.122-3.181 4.945-17.588-2.63-32.18-7.575-14.592-18.679-23.843-24.801-20.662-6.122 3.181-4.945 17.588 2.63 32.18 7.575 14.592 18.679 23.843 24.801 20.662z" fill="#B9FF66"/><path d="M384.345 191.848c-6.735 0-16.132-8.696-22.906-21.818-5.638-10.89-7.949-22.093-5.873-28.556.744-2.272 1.957-3.878 3.641-4.74 6.656-3.408 18.051 5.876 25.96 21.113 5.638 10.89 7.948 22.093 5.873 28.556-.744 2.272-1.957 3.878-3.641 4.74-.94.47-1.958.705-3.054.705zm-22.084-54.134c-.822 0-1.605.156-2.271.509-1.292.666-2.232 1.919-2.819 3.76-1.919 6.033.313 16.765 5.756 27.263 7.204 13.906 18.05 23.268 23.65 20.369 1.292-.666 2.231-1.919 2.819-3.76 1.918-6.072-.353-16.765-5.756-27.263-6.343-12.182-15.427-20.878-21.379-20.878z" fill="#B9FF66"/><path d="M429.412 259.574c-10.102 0-22.24-5.64-35.318-16.569-17.776-14.885-35.239-37.839-49.1-64.632-21.027-40.581-29.68-82.22-22.084-106.075 2.545-7.991 6.813-13.553 12.647-16.57 13.391-6.854 33.087 1.058 54.074 21.701a.83.83 0 010 1.215.83.83 0 01-1.214 0c-20.439-20.095-39.429-27.93-52.077-21.388-5.403 2.781-9.358 7.991-11.785 15.551-7.479 23.424 1.135 64.554 21.966 104.782 24.628 47.593 59.281 80.262 82.852 80.262 3.524 0 6.774-.744 9.75-2.233 5.403-2.781 9.358-7.991 11.786-15.551 7.478-23.424-1.136-64.554-21.966-104.782-6.304-12.143-13.352-23.542-20.948-33.844-.275-.392-.196-.94.195-1.214.392-.274.94-.196 1.214.196 7.675 10.419 14.762 21.857 21.105 34.078 21.026 40.581 29.679 82.22 22.083 106.075-2.545 7.991-6.813 13.554-12.647 16.57-3.211 1.606-6.734 2.428-10.533 2.428z" fill="#000"/><path d="M195.029 292.517h-.078l-21.653-2.35a.63.63 0 01-.352-.117c-4.464-.706-10.103-6.346-14.214-14.259-4.385-8.343-5.677-16.491-3.289-20.329l.039-.118 11.277-19.977a.545.545 0 01.117-.157l28.701-29.809.118-.117 73.533-52.49 46.517-97.81a.924.924 0 01.509-.43c.235-.079.47-.079.665.039a.86.86 0 01.431 1.136c-11.786 25.265-2.467 75.482 23.141 124.916 25.646 49.512 61.395 86.176 88.921 91.229.431.079.744.47.705.94-.039.431-.431.745-.861.784l-.744-.039h-.118l-106.737-18.293-85.828 30.71c-.039 0-.118.039-.157.039l-40.525 6.463c-.04.039-.079.039-.118.039zm-21.105-3.995l21.105 2.272 40.33-6.463 85.985-30.75c.156-.039.274-.078.431-.039l96.087 16.452c-25.96-11.399-56.306-45.047-78.82-88.526-22.358-43.167-32.342-87-26.86-114.693l-41.427 86.96c-.078.117-.156.235-.274.313l-73.651 52.607-28.583 29.652-11.277 19.977c0 .039-.039.079-.039.079-2.036 3.172-.666 11.007 3.289 18.645 3.876 7.482 9.476 13.122 13.313 13.396.156 0 .274.04.391.118z" fill="#000"/><path d="M270.088 153.069l46.477-97.732h.04c-11.551 24.756-3.133 74.934 23.14 125.7 26.352 50.844 62.609 86.763 89.548 91.699l-.744-.039-106.776-18.293-2.467-.431c-12.412-2.194-28.975-18.332-40.839-41.365-12.177-23.62-14.331-47.161-8.927-58.364l.548-1.175z" fill="#fff"/><path d="M429.294 273.598s-.04 0 0 0l-.783-.04h-.118l-106.776-18.292-2.467-.431c-13.117-2.311-29.758-19.116-41.465-41.796-13.274-25.774-13.94-48.728-8.928-59.148l.587-1.175 46.478-97.692a.924.924 0 01.509-.431c.235-.079.47-.079.665.039.431.196.627.705.431 1.136-11.786 25.265-2.467 75.482 23.141 124.916 25.646 49.512 61.395 86.176 88.921 91.229.431.079.744.47.705.94-.117.392-.47.745-.9.745zM312.102 66.775l-41.231 86.685-.587 1.175c-4.973 10.342-3.524 33.452 8.928 57.582 11.472 22.249 27.643 38.701 40.251 40.894l2.467.431 95.891 16.452c-25.96-11.399-56.305-45.047-78.819-88.527-22.358-43.166-32.343-86.998-26.9-114.692zM193.854 292.4h-.078l-20.518-2.194a.632.632 0 01-.352-.117c-4.464-.705-10.102-6.346-14.213-14.258-4.347-8.383-5.639-16.531-3.25-20.369l.039-.118 11.276-19.977c.235-.431.744-.548 1.175-.313.431.235.548.744.313 1.175l-11.276 20.055c0 .039-.039.079-.039.079-2.037 3.172-.666 11.007 3.289 18.645 3.876 7.482 9.475 13.122 13.312 13.396.118 0 .274.04.353.118l20.047 2.154c.47.04.822.47.744.94-.039.431-.391.784-.822.784z" fill="#000"/><path d="M195.224 291.538c-6.656-.47-15.975-9.91-22.749-22.954-7.166-13.828-8.849-28.125-4.464-33.217l-11.707 20.369-.079.156c-2.231 3.447-.939 11.399 3.25 19.507 4.112 7.991 9.907 13.554 13.979 13.867l-.118.078 21.888 2.194z" fill="#fff"/><path d="M195.224 292.4h-.078c-.157 0-.352-.04-.509-.04l-21.379-2.154a.626.626 0 01-.352-.118c-4.464-.705-10.102-6.345-14.213-14.258-4.347-8.382-5.639-16.53-3.25-20.369l.039-.117 10.298-17.94c.391-1.019.9-1.92 1.527-2.664.274-.353.783-.392 1.135-.157.353.274.47.744.235 1.136l-1.449 2.468c-2.31 6.228-.039 18.449 5.913 29.887 6.46 12.496 15.27 21.623 21.574 22.445l.47.04c.47.039.822.47.783.94.039.548-.313.901-.744.901zm-21.339-3.878l14.957 1.527c-5.756-3.682-12.099-11.281-17.15-21.074-4.894-9.44-7.322-19.233-6.93-26.283l-7.792 13.592c0 .039-.039.078-.039.078-2.037 3.173-.666 11.007 3.289 18.646 3.876 7.481 9.475 13.122 13.312 13.396.118 0 .274.039.353.118z" fill="#000"/><path d="M234.066 285.388l1.723-.353c-9.319 1.959-24.042-12.143-34.418-32.159-10.611-20.447-12.608-40.855-5.09-46.888l-.979.98-27.213 28.281c-4.464 5.014-2.819 19.39 4.385 33.295 6.931 13.397 16.759 22.955 23.454 22.915l38.138-6.071z" fill="#000"/><path d="M195.89 292.36c-7.126 0-17.032-9.596-24.198-23.385-7.283-14.101-9.123-28.829-4.268-34.274l26.704-27.733a9.14 9.14 0 011.605-1.645.895.895 0 011.175.078c.313.352.313.862 0 1.175l-1.527 1.606c-5.442 7.286-2.741 25.931 6.774 44.302 10.259 19.821 24.589 33.413 33.36 31.768l.118-.039a.88.88 0 011.018.666.879.879 0 01-.666 1.018c-.039 0-.078 0-.117.039l-1.606.314h-.039l-38.137 6.071c-.078 0-.157.039-.196.039zm-4.033-80.535l-23.141 24.051c-4.307 4.857-2.349 19.037 4.542 32.316 6.735 13.005 16.25 22.406 22.632 22.445l33.674-5.367c-9.084-3.212-20.283-15.315-28.936-31.963-8.223-15.864-11.394-32.003-8.771-41.482zm167.742-74.346c-6.148 3.133-5.247 17.666 2.584 32.159 13.117 24.247 23.572 21.387 24.785 20.956.04 0 .04.04 0 .04l-22.514 18.136c-6.617-9.284-12.921-19.625-18.716-30.789-5.521-10.693-10.18-21.348-13.861-31.689l27.722-8.813z" fill="#000"/><path d="M364.454 209.631h-.118a.926.926 0 01-.587-.352c-6.774-9.519-13.078-19.938-18.755-30.867-5.443-10.498-10.141-21.191-13.9-31.767-.079-.235-.079-.471.039-.666a.923.923 0 01.509-.431l27.722-8.814c.43-.117.9.079 1.057.509.157.431 0 .901-.392 1.097-1.331.666-2.31 1.998-2.897 3.957-1.919 6.149.431 17.039 5.873 27.028 12.804 23.659 22.671 20.956 23.728 20.564.392-.156.862.039 1.057.392.196.353.118.862-.195 1.136l-22.593 18.019a.938.938 0 01-.548.195zm-31.442-62.791c3.72 10.224 8.262 20.565 13.509 30.75 5.482 10.576 11.59 20.643 18.129 29.926l19.538-15.746c-4.464-.196-12.882-3.526-22.749-21.74-5.717-10.537-8.066-21.662-5.991-28.36.274-.862.588-1.606.979-2.311l-23.415 7.481z" fill="#000"/><defs><clipPath id="clip0_332_1228"><path fill="#fff" transform="translate(293.258 427)" d="M0 0h36v36H0z"/></clipPath><clipPath id="clip1_332_1228"><path fill="#fff" transform="rotate(45 -323.831 286.85)" d="M0 0h70.326v70.326H0z"/></clipPath></defs></svg>